<?xml version="1.0" encoding="utf-8"?>
<!-- Generator: Adobe Illustrator 17.0.2, SVG Export Plug-In . SVG Version: 6.00 Build 0)  -->
<!DOCTYPE svg PUBLIC "-//W3C//DTD SVG 1.1//EN" "http://www.w3.org/Graphics/SVG/1.1/DTD/svg11.dtd">
<svg version="1.1" id="close_copie_1_" xmlns="http://www.w3.org/2000/svg" xmlns:xlink="http://www.w3.org/1999/xlink" x="0px"
	 y="0px" width="44px" height="45px" viewBox="0 0 44 45" enable-background="new 0 0 44 45" xml:space="preserve">
<g id="close_copie">
	<g>
		<path fill-rule="evenodd" clip-rule="evenodd" fill="#A3AEB0" d="M29.086,15.914c-0.734-0.734-1.924-0.734-2.657,0L22,20.343
			l-4.429-4.429c-0.734-0.734-1.923-0.734-2.657,0c-0.734,0.734-0.734,1.924,0,2.657L19.343,23l-4.429,4.429
			c-0.734,0.734-0.734,1.924,0,2.657c0.734,0.734,1.924,0.734,2.657,0L22,25.657l4.429,4.429c0.734,0.734,1.924,0.734,2.657,0
			c0.734-0.734,0.734-1.923,0-2.657L24.657,23l4.429-4.429C29.82,17.837,29.82,16.647,29.086,15.914z M36.173,8.827
			C28.345,1,15.655,1,7.827,8.827C0,16.655,0,29.345,7.827,37.173s20.518,7.827,28.345,0C44,29.345,44,16.655,36.173,8.827z
			 M33.515,34.515c-6.36,6.36-16.671,6.36-23.031,0c-6.36-6.36-6.36-16.671,0-23.031c6.36-6.36,16.671-6.36,23.031,0
			C39.875,17.844,39.875,28.156,33.515,34.515z"/>
	</g>
</g>
</svg>
