<?xml version="1.0" encoding="utf-8"?>
<!-- Generator: Adobe Illustrator 17.0.2, SVG Export Plug-In . SVG Version: 6.00 Build 0)  -->
<!DOCTYPE svg PUBLIC "-//W3C//DTD SVG 1.1//EN" "http://www.w3.org/Graphics/SVG/1.1/DTD/svg11.dtd">
<svg version="1.1" id="Forme_3_copie_3_1_" xmlns="http://www.w3.org/2000/svg" xmlns:xlink="http://www.w3.org/1999/xlink" x="0px"
	 y="0px" width="41px" height="50px" viewBox="0 0 41 50" enable-background="new 0 0 41 50" xml:space="preserve">
<g id="Forme_3_copie_3">
	<g>
		<path fill-rule="evenodd" clip-rule="evenodd" fill="#FFFFFF" d="M40.354,44.579L40.354,44.579L28.384,30.04l-3.876,4.478
			L35.82,48.282l0.001-0.001c0.538,0.638,1.345,1.044,2.247,1.044c1.619,0,2.932-1.307,2.932-2.919
			C41,45.714,40.758,45.079,40.354,44.579z M17.075,25.522l1.365,1.783l3.956-4.5l-0.539-0.684c-0.474-0.729-1.025-1.403-1.643-2.01
			l-0.02-0.024l-0.003,0.002c-2.143-2.093-5.075-3.384-8.31-3.384C5.319,16.705,0,22.015,0,28.564c0,4.962,2.862,9.095,7.195,10.864
			l-0.02-7.183c-0.887-1.031-1.235-2.255-1.235-3.72c0-3.253,2.642-5.891,5.902-5.891c1.853,0,3.559,0.92,4.708,2.214l0.361,0.444
			C16.968,25.368,17.023,25.444,17.075,25.522z M36.886,17.287c0.35-0.482,0.556-1.074,0.556-1.714c0-1.616-1.312-2.926-2.931-2.926
			c-0.85,0-1.616,0.362-2.151,0.939l-0.004-0.003l-6.454,7.566l0.022,0.005l-6.833,7.941l-0.009-0.002l-2.349,2.777l0.021,7.387
			c1.991-0.975,3.694-2.461,4.99-4.077l15.151-17.885L36.886,17.287z M11.902,24.199c-1.715,0-3.174,1.054-3.174,1.692H8.725v20.833
			h0.003c-0.001,0.039-0.003,0.078-0.003,0.117c0,1.744,1.422,3.158,3.177,3.158c1.754,0,3.177-1.414,3.177-3.158
			c0-0.039-0.002-0.078-0.003-0.117h0.003V25.891h-0.003C15.076,25.253,13.617,24.199,11.902,24.199z M11.902,15.099
			c1.715,0,3.174,0.543,3.174,0.753h0.003V3.276h-0.003c0.001-0.039,0.003-0.078,0.003-0.117C15.079,1.414,13.656,0,11.902,0
			c-1.754,0-3.177,1.414-3.177,3.159c0,0.039,0.002,0.078,0.003,0.117H8.725v12.576h0.003C8.728,15.646,10.187,15.099,11.902,15.099
			z"/>
	</g>
</g>
</svg>
