<?xml version="1.0" encoding="utf-8"?>
<!-- Generator: Adobe Illustrator 16.0.4, SVG Export Plug-In . SVG Version: 6.00 Build 0)  -->
<!DOCTYPE svg PUBLIC "-//W3C//DTD SVG 1.1//EN" "http://www.w3.org/Graphics/SVG/1.1/DTD/svg11.dtd">
<svg version="1.1" id="Ebene_1" xmlns="http://www.w3.org/2000/svg" xmlns:xlink="http://www.w3.org/1999/xlink" x="0px" y="0px"
	 width="600px" height="260.046px" viewBox="1967.468 475.036 600 260.046" enable-background="new 1967.468 475.036 600 260.046"
	 xml:space="preserve">
<g>
	<path d="M2075.32,606.213c0,13.626,7.852,22.633,21.478,22.633c4.389,0,9.007-0.924,11.778-2.31l1.386,5.774
		c-2.771,1.386-8.083,2.771-14.78,2.771c-15.705,0-27.714-9.931-27.714-28.406c0-17.552,11.778-29.331,29.33-29.331
		c6.929,0,11.316,1.386,13.396,2.541l-1.848,6.004c-2.771-1.385-6.697-2.309-11.316-2.309
		C2083.865,583.119,2075.32,591.664,2075.32,606.213"/>
	<path d="M2114.812,575.036h7.39v59.122h-7.39V575.036z M2166.544,613.604c0,14.781-10.393,21.478-20.092,21.478
		c-10.854,0-19.399-8.083-19.399-20.785c0-13.395,8.776-21.478,19.861-21.478C2158.692,592.818,2166.544,601.363,2166.544,613.604z
		 M2134.673,614.065c0,8.776,5.081,15.474,12.24,15.474c6.928,0,12.24-6.467,12.24-15.705c0-6.928-3.464-15.473-12.009-15.473
		C2138.369,598.361,2134.673,606.444,2134.673,614.065L2134.673,614.065z M2200.262,632.541c-1.848,0.924-6.235,2.31-11.547,2.31
		c-12.24,0-20.092-8.314-20.092-20.554c0-12.471,8.545-21.478,21.709-21.478c4.388,0,8.083,1.155,10.162,2.079l-1.617,5.542
		c-1.847-0.923-4.388-1.847-8.545-1.847c-9.238,0-14.319,6.928-14.319,15.242c0,9.238,6.005,15.012,13.857,15.012
		c4.157,0,6.928-1.155,9.007-2.079L2200.262,632.541z M2212.041,612.218c1.155-1.386,2.541-3.233,3.695-4.619l11.778-13.857h8.776
		l-15.474,16.628l17.783,23.788h-9.007l-13.857-19.4l-3.695,4.157v15.243h-7.16v-59.123h7.16V612.218L2212.041,612.218z
		 M2249.916,588.662h-15.012v-10.624h42.956v10.624h-15.242v45.496h-12.702V588.662z M2284.327,593.511l3.233,16.628
		c0.924,4.157,1.617,8.776,2.31,13.395h0.231c0.924-4.619,2.079-9.238,3.002-13.395l4.388-16.628h9.931l4.157,16.167
		c1.154,4.619,2.078,9.238,3.002,13.856h0.231c0.693-4.619,1.385-9.238,2.31-13.856l3.464-16.167h12.471l-12.471,40.646h-11.779
		l-3.926-14.318c-0.924-3.926-1.848-7.622-2.541-12.702h-0.231c-0.693,5.081-1.617,8.776-2.771,12.702l-4.157,14.318h-11.778
		l-11.778-40.646H2284.327L2284.327,593.511z M2342.987,617.761c0.462,5.312,5.543,7.621,11.547,7.621
		c4.389,0,7.853-0.693,11.317-1.617l1.616,8.545c-4.157,1.616-9.238,2.54-14.78,2.54c-13.857,0-21.709-8.083-21.709-20.785
		c0-10.393,6.466-21.709,20.554-21.709c13.164,0,18.014,10.162,18.014,20.323c0,2.079-0.23,4.157-0.461,5.081H2342.987
		L2342.987,617.761z M2357.999,609.216c0-3.002-1.386-8.314-7.159-8.314c-5.312,0-7.391,4.85-7.853,8.314H2357.999z
		 M2382.941,617.761c0.462,5.312,5.542,7.621,11.547,7.621c4.388,0,7.853-0.693,11.316-1.617l1.617,8.545
		c-4.157,1.616-9.238,2.54-14.78,2.54c-13.857,0-21.709-8.083-21.709-20.785c0-10.393,6.466-21.709,20.554-21.709
		c13.164,0,18.014,10.162,18.014,20.323c0,2.079-0.231,4.157-0.462,5.081H2382.941L2382.941,617.761z M2397.722,609.216
		c0-3.002-1.386-8.314-7.159-8.314c-5.312,0-7.391,4.85-7.853,8.314H2397.722z M2427.052,581.733v11.547h9.008v9.238h-9.008v15.012
		c0,4.85,1.155,7.159,5.081,7.159c1.616,0,2.771-0.231,3.695-0.231v9.469c-1.616,0.693-4.619,1.155-8.313,1.155
		c-4.158,0-7.391-1.385-9.47-3.464c-2.31-2.309-3.464-6.235-3.464-12.009V602.98h-5.312v-9.238h5.312v-8.776L2427.052,581.733
		L2427.052,581.733z M2439.062,623.072c2.31,1.386,7.159,3.002,10.854,3.002c3.926,0,5.312-1.386,5.312-3.464
		s-1.154-3.002-6.005-4.619c-8.313-2.771-11.547-7.391-11.547-12.24c0-7.621,6.466-13.395,16.628-13.395
		c4.85,0,9.007,1.155,11.547,2.31l-2.309,8.776c-1.848-0.924-5.312-2.31-8.776-2.31c-3.003,0-4.85,1.155-4.85,3.233
		c0,1.848,1.616,3.002,6.466,4.619c7.622,2.771,11.086,6.466,11.086,12.471c0,7.621-6.005,13.164-17.552,13.164
		c-5.312,0-10.162-1.155-13.164-2.771L2439.062,623.072L2439.062,623.072z"/>
</g>
</svg>
