<?xml version="1.0" encoding="utf-8"?>
<!-- Generator: Adobe Illustrator 17.0.2, SVG Export Plug-In . SVG Version: 6.00 Build 0)  -->
<!DOCTYPE svg PUBLIC "-//W3C//DTD SVG 1.1//EN" "http://www.w3.org/Graphics/SVG/1.1/DTD/svg11.dtd">
<svg version="1.1" id="timeline_hover_copie_2_1_" xmlns="http://www.w3.org/2000/svg" xmlns:xlink="http://www.w3.org/1999/xlink"
	 x="0px" y="0px" width="514px" height="100px" viewBox="0 0 514 100" enable-background="new 0 0 514 100" xml:space="preserve">
<g id="Forme_8_xA0_Image_1_">
</g>
<g id="SYDNEY_1_">
	<g id="Ellipse_1">
		<g>
			<ellipse fill-rule="evenodd" clip-rule="evenodd" fill="#C34C49" cx="34.237" cy="65.98" rx="9.343" ry="9.278"/>
		</g>
	</g>
	<g id="Ellipse_1_copie">
		<g>
			<ellipse fill-rule="evenodd" clip-rule="evenodd" fill="#FFFFFF" cx="34.237" cy="65.98" rx="6.468" ry="6.423"/>
		</g>
	</g>
	<g id="_x32_011">
		<g>
			<path fill-rule="evenodd" clip-rule="evenodd" fill="#B8C4C7" d="M25.066,41.525c0.509-0.434,0.945-0.859,1.306-1.274
				c0.362-0.415,0.64-0.831,0.835-1.246c0.195-0.415,0.292-0.838,0.292-1.267c0-0.467-0.093-0.88-0.278-1.239
				c-0.186-0.359-0.438-0.66-0.756-0.903c-0.319-0.243-0.686-0.427-1.102-0.553c-0.416-0.126-0.85-0.189-1.302-0.189
				c-0.66,0-1.3,0.124-1.917,0.371c-0.618,0.247-1.139,0.623-1.564,1.127l0.962,1.078c0.302-0.336,0.663-0.607,1.083-0.812
				c0.42-0.205,0.908-0.308,1.465-0.308c0.217,0,0.427,0.028,0.63,0.084c0.203,0.056,0.384,0.142,0.545,0.259
				c0.16,0.117,0.29,0.266,0.389,0.448c0.099,0.182,0.149,0.394,0.149,0.637c0,0.336-0.094,0.672-0.283,1.008
				c-0.189,0.336-0.486,0.709-0.891,1.12c-0.406,0.411-0.932,0.873-1.578,1.386c-0.646,0.513-1.427,1.111-2.342,1.792v1.288h6.849
				V42.89h-4.203C23.986,42.414,24.557,41.959,25.066,41.525z M35.741,36.38c-0.307-0.457-0.7-0.826-1.177-1.106
				c-0.477-0.28-1.047-0.42-1.708-0.42c-0.661,0-1.231,0.14-1.708,0.42c-0.477,0.28-0.87,0.649-1.177,1.106
				c-0.307,0.457-0.534,0.973-0.68,1.547c-0.147,0.574-0.22,1.155-0.22,1.743s0.073,1.171,0.22,1.75
				c0.146,0.579,0.373,1.094,0.68,1.547c0.307,0.453,0.699,0.821,1.177,1.106c0.477,0.285,1.047,0.427,1.708,0.427
				c0.662,0,1.231-0.142,1.708-0.427c0.477-0.285,0.869-0.653,1.177-1.106c0.307-0.453,0.534-0.968,0.681-1.547
				c0.146-0.579,0.22-1.162,0.22-1.75s-0.073-1.169-0.22-1.743C36.275,37.353,36.048,36.837,35.741,36.38z M34.83,40.951
				c-0.075,0.406-0.195,0.763-0.359,1.071c-0.165,0.308-0.379,0.555-0.642,0.742c-0.263,0.187-0.588,0.28-0.973,0.28
				c-0.386,0-0.71-0.093-0.973-0.28c-0.263-0.187-0.477-0.434-0.642-0.742s-0.285-0.665-0.36-1.071
				c-0.075-0.406-0.113-0.833-0.113-1.281s0.038-0.875,0.113-1.281c0.075-0.406,0.195-0.763,0.36-1.071s0.378-0.553,0.642-0.735
				c0.263-0.182,0.587-0.273,0.973-0.273c0.385,0,0.71,0.091,0.973,0.273c0.263,0.182,0.477,0.427,0.642,0.735
				c0.164,0.308,0.284,0.665,0.359,1.071c0.075,0.406,0.113,0.833,0.113,1.281S34.905,40.545,34.83,40.951z M37.49,37.71
				l0.962,0.994l1.542-1.582v7.21h1.656v-9.338h-1.443L37.49,37.71z M45.655,34.994l-2.717,2.716l0.962,0.994l1.542-1.582v7.21
				h1.656v-9.338H45.655z"/>
		</g>
	</g>
	<g id="PIN_2">
		<g>
			<path fill-rule="evenodd" clip-rule="evenodd" fill="#B8C4C7" d="M7.539,85.862c-2.7,0-4.888,2.124-4.888,4.744
				s4.888,7.906,4.888,7.906s4.888-5.286,4.888-7.906S10.238,85.862,7.539,85.862z M7.539,93.768c-1.8,0-3.259-1.416-3.259-3.162
				c0-1.746,1.459-3.162,3.259-3.162c1.8,0,3.259,1.416,3.259,3.162C10.798,92.352,9.339,93.768,7.539,93.768z M7.539,89.024
				c-0.9,0-1.629,0.708-1.629,1.581s0.73,1.581,1.629,1.581s1.629-0.708,1.629-1.581S8.439,89.024,7.539,89.024z"/>
		</g>
	</g>
	<g id="Sydney">
		<g>
			<path fill-rule="evenodd" clip-rule="evenodd" fill="#A3AEB0" d="M25.511,92.403c-0.234-0.22-0.513-0.4-0.84-0.54
				c-0.327-0.14-0.666-0.263-1.019-0.367c-0.352-0.105-0.696-0.205-1.03-0.3c-0.335-0.095-0.626-0.207-0.876-0.338
				c-0.249-0.13-0.442-0.285-0.579-0.465c-0.137-0.18-0.181-0.41-0.132-0.69c0.083-0.48,0.341-0.865,0.772-1.155
				c0.431-0.29,0.944-0.435,1.537-0.435c0.544,0,1.046,0.095,1.507,0.285c0.461,0.19,0.843,0.495,1.146,0.915l0.901-0.915
				c-0.337-0.45-0.776-0.795-1.318-1.035c-0.542-0.24-1.193-0.36-1.954-0.36c-0.485,0-0.946,0.068-1.385,0.203
				c-0.439,0.135-0.83,0.325-1.175,0.57c-0.344,0.245-0.633,0.538-0.865,0.878c-0.232,0.34-0.384,0.715-0.456,1.125
				c-0.079,0.45-0.06,0.825,0.056,1.125c0.116,0.3,0.292,0.553,0.528,0.757c0.236,0.205,0.518,0.373,0.847,0.503
				c0.328,0.13,0.669,0.247,1.021,0.353c0.352,0.105,0.696,0.205,1.03,0.3c0.334,0.095,0.625,0.215,0.871,0.36
				c0.247,0.145,0.436,0.323,0.567,0.533c0.131,0.21,0.169,0.475,0.113,0.795c-0.033,0.19-0.107,0.388-0.222,0.592
				c-0.115,0.205-0.276,0.39-0.482,0.555c-0.207,0.165-0.468,0.303-0.784,0.412c-0.316,0.11-0.696,0.165-1.141,0.165
				c-0.346,0-0.665-0.04-0.958-0.12c-0.293-0.08-0.559-0.185-0.798-0.315c-0.239-0.13-0.453-0.282-0.64-0.457
				c-0.187-0.175-0.344-0.353-0.471-0.533l-0.891,0.945c0.333,0.47,0.786,0.853,1.357,1.148c0.571,0.295,1.292,0.443,2.162,0.443
				c0.662,0,1.241-0.085,1.735-0.255c0.494-0.17,0.911-0.392,1.251-0.668c0.34-0.275,0.605-0.59,0.795-0.945
				c0.19-0.355,0.317-0.712,0.38-1.072c0.082-0.47,0.067-0.865-0.045-1.185C25.918,92.893,25.745,92.623,25.511,92.403z
				 M30.122,95.853l-1.352-5.94h-1.201l1.72,7.32l-0.665,1.095c-0.181,0.3-0.365,0.503-0.551,0.607
				c-0.186,0.105-0.403,0.158-0.65,0.158c-0.089,0-0.191-0.01-0.306-0.03c-0.115-0.02-0.209-0.05-0.281-0.09l-0.356,1.02
				c0.103,0.03,0.232,0.055,0.387,0.075c0.155,0.02,0.292,0.03,0.41,0.03c0.476-0.01,0.911-0.125,1.306-0.345
				c0.394-0.22,0.746-0.595,1.056-1.125l5.108-8.715h-1.216L30.122,95.853z M40.977,91.008c-0.217-0.4-0.516-0.713-0.897-0.938
				c-0.381-0.225-0.814-0.338-1.298-0.338c-0.475,0-0.923,0.09-1.345,0.27c-0.422,0.18-0.803,0.435-1.142,0.765
				c-0.339,0.33-0.627,0.73-0.862,1.2c-0.235,0.47-0.403,0.995-0.504,1.575c-0.103,0.59-0.116,1.12-0.04,1.59
				c0.076,0.47,0.227,0.868,0.452,1.193c0.225,0.325,0.518,0.575,0.878,0.75c0.36,0.175,0.772,0.263,1.237,0.263
				c0.504,0,0.987-0.118,1.448-0.353c0.461-0.235,0.857-0.537,1.189-0.907l-0.188,1.08h1.112l1.744-10.005h-1.112L40.977,91.008z
				 M40.248,95.193c-0.254,0.32-0.597,0.59-1.031,0.81c-0.434,0.22-0.873,0.33-1.318,0.33c-0.356,0-0.665-0.07-0.927-0.21
				c-0.262-0.14-0.471-0.335-0.625-0.585c-0.154-0.25-0.254-0.545-0.298-0.885c-0.044-0.34-0.032-0.71,0.038-1.11
				c0.07-0.4,0.186-0.772,0.35-1.117c0.164-0.345,0.367-0.642,0.608-0.893c0.241-0.25,0.517-0.445,0.829-0.585
				c0.311-0.14,0.645-0.21,1-0.21c0.445,0,0.845,0.115,1.2,0.345c0.355,0.23,0.604,0.505,0.746,0.825L40.248,95.193z M48.273,89.733
				c-0.267,0-0.533,0.035-0.797,0.105c-0.264,0.07-0.518,0.165-0.762,0.285c-0.243,0.12-0.467,0.253-0.67,0.398
				c-0.203,0.145-0.382,0.292-0.537,0.443l0.183-1.05h-1.112l-1.263,7.245h1.112l0.923-5.295c0.125-0.15,0.276-0.292,0.453-0.427
				c0.177-0.135,0.368-0.255,0.574-0.36s0.418-0.188,0.636-0.247c0.218-0.06,0.436-0.09,0.653-0.09c0.484,0,0.852,0.12,1.101,0.36
				c0.25,0.24,0.319,0.68,0.207,1.32l-0.826,4.74h1.112l0.887-5.085C50.421,90.513,49.796,89.733,48.273,89.733z M58.323,90.858
				c-0.236-0.35-0.55-0.625-0.941-0.825c-0.391-0.2-0.859-0.3-1.404-0.3c-0.515,0-1.006,0.1-1.472,0.3
				c-0.466,0.2-0.885,0.47-1.256,0.81c-0.371,0.34-0.687,0.742-0.946,1.207c-0.26,0.465-0.435,0.958-0.525,1.478
				c-0.099,0.57-0.098,1.087,0.004,1.552c0.102,0.465,0.284,0.865,0.547,1.2c0.263,0.335,0.601,0.595,1.013,0.78
				s0.886,0.278,1.42,0.278c0.593,0,1.144-0.095,1.651-0.285c0.507-0.19,0.971-0.465,1.39-0.825l-0.406-0.735
				c-0.337,0.29-0.713,0.515-1.126,0.675c-0.413,0.16-0.828,0.24-1.243,0.24c-0.386,0-0.72-0.068-1.003-0.203
				c-0.283-0.135-0.516-0.315-0.699-0.54c-0.183-0.225-0.313-0.49-0.388-0.795c-0.076-0.305-0.093-0.627-0.054-0.967h5.813
				l0.05-0.285c0.094-0.54,0.106-1.047,0.035-1.523C58.712,91.62,58.559,91.208,58.323,90.858z M57.73,93.078h-4.701
				c0.059-0.28,0.165-0.562,0.318-0.848c0.153-0.285,0.347-0.542,0.58-0.772c0.233-0.23,0.506-0.42,0.819-0.57
				c0.313-0.15,0.662-0.225,1.048-0.225c0.405,0,0.743,0.075,1.014,0.225c0.27,0.15,0.481,0.343,0.633,0.578
				c0.152,0.235,0.25,0.495,0.294,0.78C57.778,92.53,57.777,92.808,57.73,93.078z M66.141,89.913l-3.408,5.94l-1.352-5.94H60.18
				l1.72,7.32l-0.666,1.095c-0.181,0.3-0.365,0.503-0.551,0.607c-0.186,0.105-0.403,0.158-0.65,0.158
				c-0.089,0-0.191-0.01-0.306-0.03c-0.115-0.02-0.209-0.05-0.281-0.09l-0.356,1.02c0.103,0.03,0.232,0.055,0.387,0.075
				c0.155,0.02,0.292,0.03,0.41,0.03c0.476-0.01,0.911-0.125,1.306-0.345c0.394-0.22,0.746-0.595,1.056-1.125l5.108-8.715H66.141z"
				/>
		</g>
	</g>
</g>
<g id="PARIS_1_">
	<g id="Ellipse_1_1_">
		<g>
			<ellipse fill-rule="evenodd" clip-rule="evenodd" fill="#C34C49" cx="169.482" cy="39.471" rx="9.343" ry="9.278"/>
		</g>
	</g>
	<g id="Ellipse_1_copie_1_">
		<g>
			<ellipse fill-rule="evenodd" clip-rule="evenodd" fill="#FFFFFF" cx="169.482" cy="39.471" rx="6.468" ry="6.423"/>
		</g>
	</g>
	<g id="PIN_2_copie_3">
		<g>
			<path fill-rule="evenodd" clip-rule="evenodd" fill="#B8C4C7" d="M151.686,62.445c-0.901,0-1.631,0.692-1.631,1.546
				c0,0.854,0.73,1.546,1.631,1.546s1.631-0.692,1.631-1.546C153.318,63.138,152.587,62.445,151.686,62.445z M151.686,59.353
				c-2.703,0-4.894,2.077-4.894,4.639c0,2.562,4.894,7.732,4.894,7.732s4.894-5.17,4.894-7.732
				C156.58,61.43,154.389,59.353,151.686,59.353z M151.686,67.084c-1.802,0-3.262-1.385-3.262-3.093s1.461-3.093,3.262-3.093
				s3.262,1.385,3.262,3.093S153.488,67.084,151.686,67.084z"/>
		</g>
	</g>
	<g id="_x32_012">
		<g>
			<path fill-rule="evenodd" clip-rule="evenodd" fill="#B8C4C7" d="M158.901,14.623c0.508-0.434,0.943-0.859,1.304-1.274
				c0.361-0.415,0.638-0.831,0.833-1.246c0.195-0.415,0.292-0.838,0.292-1.267c0-0.467-0.093-0.88-0.278-1.239
				c-0.185-0.359-0.437-0.66-0.755-0.903c-0.318-0.243-0.684-0.427-1.099-0.553c-0.415-0.126-0.848-0.189-1.3-0.189
				c-0.659,0-1.297,0.124-1.913,0.371c-0.617,0.247-1.137,0.623-1.56,1.127l0.96,1.078c0.301-0.336,0.661-0.607,1.08-0.812
				c0.419-0.205,0.906-0.308,1.461-0.308c0.216,0,0.426,0.028,0.628,0.084c0.202,0.056,0.383,0.142,0.544,0.259
				c0.16,0.117,0.289,0.266,0.388,0.448c0.099,0.182,0.148,0.394,0.148,0.637c0,0.336-0.094,0.672-0.282,1.008
				c-0.188,0.336-0.485,0.709-0.89,1.12c-0.405,0.411-0.93,0.873-1.574,1.386c-0.645,0.513-1.424,1.111-2.337,1.792v1.288h6.834
				v-1.442h-4.193C157.823,15.512,158.393,15.057,158.901,14.623z M169.552,9.478c-0.307-0.457-0.698-0.826-1.174-1.106
				c-0.476-0.28-1.044-0.42-1.704-0.42c-0.66,0-1.228,0.14-1.705,0.42c-0.476,0.28-0.868,0.649-1.174,1.106
				c-0.307,0.457-0.533,0.973-0.679,1.547c-0.146,0.574-0.219,1.155-0.219,1.743s0.073,1.171,0.219,1.75
				c0.146,0.579,0.372,1.094,0.679,1.547c0.306,0.453,0.698,0.821,1.174,1.106c0.476,0.285,1.044,0.427,1.705,0.427
				c0.66,0,1.228-0.142,1.704-0.427c0.476-0.285,0.867-0.653,1.174-1.106c0.306-0.453,0.533-0.968,0.679-1.547
				c0.146-0.579,0.219-1.162,0.219-1.75s-0.073-1.169-0.219-1.743C170.085,10.451,169.859,9.935,169.552,9.478z M168.643,14.049
				c-0.075,0.406-0.195,0.763-0.359,1.071c-0.164,0.308-0.378,0.555-0.64,0.742c-0.263,0.187-0.586,0.28-0.971,0.28
				c-0.385,0-0.708-0.093-0.971-0.28c-0.263-0.187-0.476-0.434-0.64-0.742s-0.284-0.665-0.359-1.071
				c-0.075-0.406-0.113-0.833-0.113-1.281s0.037-0.875,0.113-1.281c0.075-0.406,0.195-0.763,0.359-1.071s0.378-0.553,0.64-0.735
				c0.263-0.182,0.586-0.273,0.971-0.273c0.385,0,0.708,0.091,0.971,0.273c0.263,0.182,0.476,0.427,0.64,0.735
				c0.164,0.308,0.284,0.665,0.359,1.071s0.113,0.833,0.113,1.281S168.718,13.643,168.643,14.049z M171.298,10.808l0.96,0.994
				l1.539-1.582v7.21h1.652V8.092h-1.44L171.298,10.808z M179.868,15.988c0.63-0.476,1.2-0.931,1.708-1.365
				c0.508-0.434,0.943-0.859,1.304-1.274c0.361-0.415,0.638-0.831,0.833-1.246c0.195-0.415,0.292-0.838,0.292-1.267
				c0-0.467-0.093-0.88-0.278-1.239c-0.185-0.359-0.437-0.66-0.754-0.903c-0.318-0.243-0.684-0.427-1.099-0.553
				c-0.415-0.126-0.848-0.189-1.3-0.189c-0.659,0-1.297,0.124-1.913,0.371c-0.617,0.247-1.137,0.623-1.56,1.127l0.96,1.078
				c0.301-0.336,0.661-0.607,1.08-0.812c0.419-0.205,0.906-0.308,1.461-0.308c0.216,0,0.426,0.028,0.628,0.084
				c0.202,0.056,0.383,0.142,0.544,0.259c0.16,0.117,0.289,0.266,0.388,0.448c0.099,0.182,0.148,0.394,0.148,0.637
				c0,0.336-0.094,0.672-0.282,1.008c-0.188,0.336-0.485,0.709-0.889,1.12c-0.405,0.411-0.93,0.873-1.574,1.386
				c-0.645,0.513-1.424,1.111-2.337,1.792v1.288h6.834v-1.442H179.868z"/>
		</g>
	</g>
	<g id="Paris">
		<g>
			<path fill-rule="evenodd" clip-rule="evenodd" fill="#A3AEB0" d="M171.135,61.557c-0.223-0.275-0.52-0.492-0.893-0.652
				c-0.372-0.16-0.816-0.24-1.33-0.24h-4.137l-1.816,10.005h1.281l0.721-3.975h2.856c0.504,0,0.972-0.08,1.402-0.24
				c0.43-0.16,0.81-0.377,1.137-0.653c0.328-0.275,0.597-0.595,0.807-0.96c0.21-0.365,0.353-0.752,0.427-1.163
				c0.074-0.41,0.073-0.797-0.005-1.162C171.508,62.152,171.357,61.832,171.135,61.557z M170.263,63.679
				c-0.103,0.57-0.375,1.03-0.814,1.38c-0.439,0.35-0.968,0.525-1.585,0.525h-2.702l0.691-3.81h2.702
				c0.617,0,1.082,0.175,1.394,0.525C170.262,62.649,170.367,63.109,170.263,63.679z M177.952,63.807
				c-0.227-0.195-0.508-0.337-0.841-0.427c-0.334-0.09-0.696-0.135-1.087-0.135c-1.194,0-2.26,0.4-3.197,1.2l0.399,0.78
				c0.77-0.67,1.592-1.005,2.467-1.005c0.545,0,0.972,0.133,1.279,0.397c0.307,0.265,0.416,0.643,0.327,1.133l-0.237,1.305
				c-0.237-0.34-0.549-0.59-0.937-0.75c-0.388-0.16-0.839-0.24-1.354-0.24c-0.319,0-0.642,0.048-0.968,0.143
				c-0.326,0.095-0.631,0.243-0.914,0.443c-0.283,0.2-0.529,0.45-0.738,0.75c-0.209,0.3-0.35,0.65-0.422,1.05
				c-0.071,0.39-0.056,0.735,0.044,1.035c0.1,0.3,0.255,0.553,0.465,0.757c0.21,0.205,0.46,0.358,0.751,0.458s0.596,0.15,0.915,0.15
				c1.019,0,1.903-0.335,2.653-1.005l-0.15,0.825h1.158l0.904-4.98c0.08-0.44,0.07-0.815-0.027-1.125
				C178.341,64.255,178.179,64.002,177.952,63.807z M176.683,69.139c-0.281,0.3-0.618,0.525-1.01,0.675
				c-0.393,0.15-0.795,0.225-1.206,0.225c-0.546,0-0.961-0.147-1.247-0.443c-0.286-0.295-0.387-0.672-0.304-1.133
				c0.085-0.47,0.324-0.852,0.718-1.148c0.393-0.295,0.862-0.443,1.408-0.443c0.412,0,0.787,0.075,1.125,0.225
				c0.338,0.15,0.593,0.375,0.765,0.675L176.683,69.139z M182.216,64.594l0.213-1.17h-1.158l-1.315,7.245h1.158l0.931-5.13
				c0.109-0.15,0.253-0.293,0.432-0.428c0.179-0.135,0.374-0.257,0.584-0.367c0.21-0.11,0.422-0.197,0.634-0.262
				c0.212-0.065,0.406-0.098,0.581-0.098c0.165,0,0.316,0.015,0.455,0.045l0.21-1.155c-0.515,0-1.006,0.125-1.473,0.375
				C183.001,63.899,182.584,64.214,182.216,64.594z M187.477,60.874c-0.206,0-0.4,0.075-0.581,0.225
				c-0.182,0.15-0.291,0.33-0.33,0.54c-0.038,0.21,0.007,0.388,0.135,0.532c0.128,0.145,0.295,0.218,0.501,0.218
				c0.216,0,0.414-0.072,0.595-0.218c0.181-0.145,0.29-0.322,0.328-0.532c0.038-0.21-0.007-0.39-0.134-0.54
				C187.864,60.949,187.693,60.874,187.477,60.874z M185.128,70.669h1.158l1.315-7.245h-1.158L185.128,70.669z M193.463,66.889
				c-0.316-0.16-0.664-0.282-1.045-0.367c-0.381-0.085-0.735-0.175-1.063-0.27c-0.328-0.095-0.592-0.212-0.793-0.352
				c-0.201-0.14-0.278-0.34-0.231-0.6c0.058-0.32,0.254-0.59,0.587-0.81c0.333-0.22,0.757-0.33,1.272-0.33
				c0.484,0,0.903,0.088,1.257,0.262c0.354,0.175,0.621,0.393,0.8,0.653l0.682-0.78c-0.246-0.29-0.577-0.537-0.992-0.743
				c-0.416-0.205-0.942-0.307-1.581-0.307c-0.443,0-0.846,0.055-1.211,0.165c-0.365,0.11-0.683,0.26-0.954,0.45
				c-0.271,0.19-0.492,0.413-0.661,0.668s-0.28,0.523-0.331,0.802c-0.082,0.45-0.033,0.802,0.148,1.057
				c0.18,0.255,0.428,0.46,0.745,0.615c0.316,0.155,0.665,0.275,1.046,0.36c0.381,0.085,0.735,0.178,1.061,0.278
				c0.327,0.1,0.589,0.228,0.788,0.383c0.198,0.155,0.271,0.378,0.219,0.667c-0.066,0.36-0.269,0.658-0.61,0.893
				c-0.341,0.235-0.8,0.352-1.376,0.352c-0.515,0-0.972-0.102-1.372-0.307c-0.4-0.205-0.698-0.447-0.894-0.727l-0.749,0.81
				c0.31,0.39,0.7,0.678,1.171,0.862c0.471,0.185,1.015,0.278,1.633,0.278c0.484,0,0.919-0.058,1.305-0.173
				c0.386-0.115,0.721-0.27,1.003-0.465c0.282-0.195,0.51-0.427,0.682-0.698c0.172-0.27,0.286-0.555,0.34-0.855
				c0.085-0.47,0.04-0.842-0.137-1.117C194.026,67.267,193.779,67.049,193.463,66.889z"/>
		</g>
	</g>
</g>
<g id="MONTREAL_1_">
	<g id="Ellipse_1_2_">
		<g>
			<ellipse fill-rule="evenodd" clip-rule="evenodd" fill="#C34C49" cx="310.955" cy="57.143" rx="9.343" ry="9.278"/>
		</g>
	</g>
	<g id="Ellipse_1_copie_2_">
		<g>
			<ellipse fill-rule="evenodd" clip-rule="evenodd" fill="#FFFFFF" cx="310.955" cy="57.143" rx="6.468" ry="6.423"/>
		</g>
	</g>
	<g id="_x32_013">
		<g>
			<path fill-rule="evenodd" clip-rule="evenodd" fill="#B8C4C7" d="M300.707,33.075c0.506-0.434,0.938-0.859,1.297-1.274
				c0.359-0.415,0.635-0.831,0.829-1.246c0.194-0.415,0.29-0.838,0.29-1.267c0-0.467-0.092-0.88-0.276-1.239
				c-0.184-0.359-0.434-0.66-0.75-0.903c-0.316-0.243-0.681-0.427-1.093-0.553c-0.413-0.126-0.843-0.189-1.293-0.189
				c-0.655,0-1.29,0.124-1.903,0.371c-0.613,0.247-1.131,0.623-1.552,1.127l0.955,1.078c0.3-0.336,0.658-0.607,1.074-0.812
				c0.416-0.205,0.901-0.308,1.453-0.308c0.215,0,0.424,0.028,0.625,0.084c0.201,0.056,0.381,0.142,0.541,0.259
				c0.159,0.117,0.288,0.266,0.386,0.448c0.098,0.182,0.147,0.394,0.147,0.637c0,0.336-0.094,0.672-0.281,1.008
				c-0.187,0.336-0.482,0.709-0.885,1.12c-0.403,0.411-0.925,0.873-1.566,1.386c-0.641,0.513-1.416,1.111-2.324,1.792v1.288h6.797
				V34.44h-4.171C299.635,33.964,300.202,33.509,300.707,33.075z M311.301,27.93c-0.305-0.457-0.694-0.826-1.168-1.106
				c-0.474-0.28-1.039-0.42-1.695-0.42s-1.222,0.14-1.695,0.42c-0.474,0.28-0.863,0.649-1.168,1.106
				c-0.305,0.457-0.53,0.973-0.675,1.547c-0.146,0.574-0.218,1.155-0.218,1.743c0,0.588,0.073,1.171,0.218,1.75
				c0.145,0.579,0.37,1.094,0.675,1.547c0.305,0.453,0.694,0.821,1.168,1.106c0.474,0.285,1.039,0.427,1.695,0.427
				s1.222-0.142,1.695-0.427c0.474-0.285,0.863-0.653,1.168-1.106c0.305-0.453,0.53-0.968,0.675-1.547
				c0.145-0.579,0.218-1.162,0.218-1.75c0-0.588-0.073-1.169-0.218-1.743C311.831,28.903,311.606,28.387,311.301,27.93z
				 M310.397,32.5c-0.075,0.406-0.194,0.763-0.357,1.071c-0.163,0.308-0.376,0.555-0.637,0.742c-0.261,0.187-0.583,0.28-0.966,0.28
				c-0.383,0-0.705-0.093-0.966-0.28c-0.261-0.187-0.474-0.434-0.637-0.742c-0.163-0.308-0.282-0.665-0.357-1.071
				c-0.075-0.406-0.112-0.833-0.112-1.281s0.037-0.875,0.112-1.281c0.075-0.406,0.194-0.763,0.357-1.071
				c0.163-0.308,0.375-0.553,0.637-0.735c0.261-0.182,0.583-0.273,0.966-0.273c0.382,0,0.704,0.091,0.966,0.273
				c0.261,0.182,0.474,0.427,0.637,0.735c0.163,0.308,0.282,0.665,0.357,1.071c0.075,0.406,0.112,0.833,0.112,1.281
				S310.472,32.095,310.397,32.5z M313.037,29.26l0.955,0.994l1.531-1.582v7.21h1.643v-9.338h-1.432L313.037,29.26z M325.43,32.382
				c-0.145-0.271-0.325-0.502-0.541-0.693c-0.216-0.191-0.452-0.338-0.709-0.441c-0.258-0.103-0.499-0.163-0.723-0.182
				c0.243-0.037,0.487-0.112,0.73-0.224c0.243-0.112,0.461-0.259,0.653-0.441c0.192-0.182,0.349-0.397,0.47-0.644
				c0.122-0.247,0.183-0.525,0.183-0.833c0-0.392-0.082-0.744-0.246-1.057c-0.164-0.313-0.393-0.576-0.688-0.791
				c-0.295-0.215-0.651-0.38-1.067-0.497c-0.417-0.117-0.878-0.175-1.383-0.175c-0.786,0-1.463,0.14-2.029,0.42
				c-0.567,0.28-1.028,0.63-1.383,1.05l0.843,1.022c0.337-0.336,0.704-0.593,1.102-0.77c0.398-0.177,0.836-0.266,1.313-0.266
				c0.262,0,0.508,0.028,0.737,0.084c0.229,0.056,0.431,0.14,0.604,0.252c0.173,0.112,0.309,0.25,0.407,0.413
				c0.098,0.163,0.147,0.352,0.147,0.567c0,0.215-0.049,0.399-0.147,0.553c-0.098,0.154-0.234,0.282-0.407,0.385
				c-0.173,0.103-0.377,0.177-0.611,0.224c-0.234,0.047-0.487,0.07-0.758,0.07h-0.618c-0.225,0-0.379-0.005-0.463-0.014v1.47
				c0.075-0.009,0.225-0.014,0.449-0.014h0.632c0.674,0,1.189,0.103,1.545,0.308c0.356,0.205,0.534,0.541,0.534,1.008
				c0,0.439-0.171,0.786-0.513,1.043c-0.342,0.257-0.821,0.385-1.439,0.385c-0.506,0-0.99-0.1-1.453-0.301
				c-0.464-0.201-0.845-0.478-1.145-0.833l-0.885,1.078c0.318,0.42,0.777,0.777,1.376,1.071c0.599,0.294,1.32,0.441,2.163,0.441
				c0.543,0,1.032-0.068,1.468-0.203c0.436-0.135,0.808-0.322,1.115-0.56c0.307-0.238,0.543-0.525,0.708-0.861
				s0.248-0.7,0.248-1.092C325.648,32.97,325.575,32.652,325.43,32.382z"/>
		</g>
	</g>
	<g id="PIN_2_copie_4">
		<g>
			<path fill-rule="evenodd" clip-rule="evenodd" fill="#B8C4C7" d="M279.806,77.025c-2.699,0-4.887,2.077-4.887,4.639
				c0,2.562,4.887,7.732,4.887,7.732s4.887-5.17,4.887-7.732C284.692,79.103,282.504,77.025,279.806,77.025z M279.806,84.757
				c-1.799,0-3.258-1.385-3.258-3.093s1.459-3.093,3.258-3.093c1.799,0,3.258,1.385,3.258,3.093S281.605,84.757,279.806,84.757z
				 M279.806,80.118c-0.9,0-1.629,0.693-1.629,1.547s0.729,1.546,1.629,1.546s1.629-0.692,1.629-1.546
				S280.705,80.118,279.806,80.118z"/>
		</g>
	</g>
	<g id="Montreal">
		<g>
			<path fill-rule="evenodd" clip-rule="evenodd" fill="#A3AEB0" d="M296.479,86.162l-1.802-7.53h-1.81l-1.789,10.005h1.262
				l1.473-8.235l1.965,8.235h0.517l4.925-8.235l-1.473,8.235h1.262l1.789-10.005h-1.81L296.479,86.162z M310.414,82.322
				c-0.254-0.34-0.588-0.61-1.004-0.81c-0.415-0.2-0.902-0.3-1.46-0.3c-0.558,0-1.08,0.1-1.567,0.3
				c-0.487,0.2-0.918,0.47-1.293,0.81c-0.375,0.34-0.688,0.742-0.939,1.208c-0.25,0.465-0.422,0.958-0.515,1.477
				c-0.095,0.53-0.1,1.025-0.014,1.485c0.085,0.46,0.254,0.862,0.506,1.208c0.253,0.345,0.587,0.618,1.002,0.818
				c0.415,0.2,0.902,0.3,1.46,0.3c0.558,0,1.08-0.1,1.567-0.3c0.487-0.2,0.919-0.473,1.294-0.818
				c0.376-0.345,0.689-0.747,0.939-1.208c0.25-0.46,0.422-0.955,0.516-1.485c0.093-0.52,0.097-1.013,0.013-1.477
				C310.836,83.064,310.667,82.662,310.414,82.322z M309.706,85.007c-0.066,0.37-0.183,0.725-0.35,1.065
				c-0.167,0.34-0.378,0.638-0.631,0.893c-0.253,0.255-0.544,0.46-0.87,0.615c-0.327,0.155-0.688,0.232-1.083,0.232
				s-0.732-0.077-1.008-0.232c-0.277-0.155-0.496-0.36-0.658-0.615c-0.162-0.255-0.266-0.552-0.312-0.893
				c-0.046-0.34-0.035-0.695,0.031-1.065c0.066-0.37,0.182-0.722,0.349-1.057c0.166-0.335,0.376-0.63,0.63-0.885
				s0.546-0.46,0.878-0.615c0.332-0.155,0.696-0.232,1.091-0.232c0.395,0,0.729,0.078,1,0.232c0.271,0.155,0.488,0.36,0.651,0.615
				s0.267,0.55,0.313,0.885C309.782,84.285,309.772,84.637,309.706,85.007z M317.274,81.212c-0.274,0-0.546,0.035-0.817,0.105
				c-0.271,0.07-0.532,0.165-0.781,0.285c-0.25,0.12-0.479,0.253-0.687,0.397c-0.208,0.145-0.392,0.292-0.55,0.443l0.188-1.05
				h-1.141l-1.295,7.245h1.141l0.947-5.295c0.128-0.15,0.283-0.293,0.464-0.427c0.181-0.135,0.378-0.255,0.589-0.36
				c0.212-0.105,0.429-0.188,0.653-0.247c0.224-0.06,0.447-0.09,0.67-0.09c0.497,0,0.873,0.12,1.13,0.36
				c0.256,0.24,0.327,0.68,0.213,1.32l-0.847,4.74h1.141l0.909-5.085C319.477,81.992,318.836,81.212,317.274,81.212z
				 M323.665,79.412h-1.141l-0.354,1.98h-1.217l-0.18,1.005h1.217l-0.846,4.729c-0.096,0.539-0.037,0.955,0.18,1.25
				c0.216,0.294,0.598,0.441,1.146,0.441c0.335,0,0.618-0.043,0.852-0.128c0.233-0.085,0.433-0.197,0.6-0.338l-0.184-0.84
				c-0.096,0.08-0.217,0.15-0.365,0.21c-0.148,0.06-0.302,0.09-0.465,0.09c-0.254,0-0.426-0.087-0.516-0.262
				c-0.091-0.174-0.112-0.396-0.064-0.666l0.803-4.488h1.491l0.18-1.005h-1.491L323.665,79.412z M327.421,82.562l0.209-1.17h-1.141
				l-1.295,7.245h1.141l0.917-5.13c0.108-0.15,0.25-0.292,0.426-0.427s0.368-0.257,0.575-0.367c0.207-0.11,0.415-0.197,0.625-0.263
				c0.209-0.065,0.4-0.098,0.573-0.098c0.162,0,0.312,0.015,0.448,0.045l0.207-1.155c-0.507,0-0.991,0.125-1.451,0.375
				C328.195,81.867,327.783,82.182,327.421,82.562z M337.225,82.337c-0.242-0.35-0.564-0.625-0.965-0.825
				c-0.401-0.2-0.881-0.3-1.44-0.3c-0.529,0-1.032,0.1-1.509,0.3c-0.478,0.2-0.907,0.47-1.288,0.81
				c-0.381,0.34-0.704,0.742-0.97,1.208c-0.266,0.465-0.446,0.958-0.539,1.477c-0.102,0.57-0.101,1.088,0.004,1.552
				c0.104,0.465,0.291,0.865,0.561,1.2c0.269,0.335,0.616,0.595,1.039,0.78c0.423,0.185,0.909,0.278,1.456,0.278
				c0.608,0,1.173-0.095,1.694-0.285c0.52-0.19,0.996-0.465,1.425-0.825l-0.416-0.735c-0.346,0.29-0.731,0.515-1.155,0.675
				c-0.424,0.16-0.849,0.24-1.275,0.24c-0.396,0-0.738-0.068-1.029-0.203s-0.529-0.315-0.717-0.54
				c-0.188-0.225-0.321-0.49-0.398-0.795c-0.077-0.305-0.096-0.627-0.055-0.968h5.962l0.051-0.285
				c0.096-0.54,0.109-1.047,0.036-1.523C337.624,83.1,337.467,82.687,337.225,82.337z M336.617,84.557h-4.822
				c0.06-0.28,0.169-0.562,0.326-0.847c0.157-0.285,0.356-0.542,0.594-0.773c0.239-0.23,0.519-0.42,0.84-0.57
				c0.321-0.15,0.679-0.225,1.074-0.225c0.416,0,0.762,0.075,1.04,0.225c0.277,0.15,0.494,0.343,0.65,0.578
				c0.156,0.235,0.256,0.495,0.302,0.78C336.666,84.009,336.665,84.287,336.617,84.557z M345.046,81.774
				c-0.224-0.195-0.5-0.338-0.829-0.427c-0.329-0.09-0.686-0.135-1.071-0.135c-1.176,0-2.226,0.4-3.15,1.2l0.393,0.78
				c0.759-0.67,1.569-1.005,2.431-1.005c0.537,0,0.957,0.133,1.26,0.398c0.302,0.265,0.41,0.643,0.322,1.133l-0.233,1.305
				c-0.233-0.34-0.541-0.59-0.923-0.75c-0.382-0.16-0.827-0.24-1.333-0.24c-0.314,0-0.632,0.048-0.953,0.142
				c-0.321,0.095-0.621,0.243-0.9,0.443c-0.279,0.2-0.521,0.45-0.727,0.75s-0.344,0.65-0.416,1.05
				c-0.07,0.39-0.055,0.735,0.043,1.035s0.251,0.553,0.458,0.758c0.207,0.205,0.453,0.358,0.74,0.457
				c0.286,0.1,0.587,0.15,0.901,0.15c1.004,0,1.875-0.335,2.613-1.005l-0.148,0.825h1.141l0.891-4.98
				c0.078-0.44,0.069-0.815-0.027-1.125C345.43,82.222,345.27,81.969,345.046,81.774z M343.796,87.107
				c-0.277,0.3-0.608,0.525-0.995,0.675c-0.387,0.15-0.783,0.225-1.189,0.225c-0.538,0-0.947-0.147-1.229-0.443
				c-0.282-0.295-0.382-0.672-0.299-1.133c0.084-0.47,0.32-0.852,0.707-1.147c0.387-0.295,0.85-0.443,1.387-0.443
				c0.405,0,0.775,0.075,1.108,0.225s0.584,0.375,0.754,0.675L343.796,87.107z M348.81,78.632l-1.789,10.005h1.141l1.789-10.005
				H348.81z"/>
		</g>
	</g>
</g>
<g id="SF_1_">
	<g id="Ellipse_1_3_">
		<g>
			<ellipse fill-rule="evenodd" clip-rule="evenodd" fill="#C34C49" cx="450.648" cy="30.192" rx="9.343" ry="9.72"/>
		</g>
	</g>
	<g id="Ellipse_1_copie_3_">
		<g>
			<ellipse fill-rule="evenodd" clip-rule="evenodd" fill="#FFFFFF" cx="450.648" cy="30.192" rx="6.468" ry="6.729"/>
		</g>
	</g>
	<g id="_x32_014">
		<g>
			<path fill-rule="evenodd" clip-rule="evenodd" fill="#B8C4C7" d="M439.844,5.708c0.504-0.434,0.935-0.859,1.293-1.274
				c0.358-0.415,0.633-0.831,0.826-1.246c0.193-0.415,0.289-0.838,0.289-1.267c0-0.467-0.092-0.88-0.275-1.239
				c-0.184-0.359-0.433-0.66-0.748-0.903c-0.315-0.243-0.679-0.427-1.09-0.553s-0.841-0.189-1.289-0.189
				c-0.653,0-1.286,0.124-1.897,0.371c-0.611,0.247-1.127,0.623-1.547,1.127l0.952,1.078c0.299-0.336,0.656-0.607,1.071-0.812
				c0.415-0.205,0.898-0.308,1.449-0.308c0.215,0,0.422,0.028,0.623,0.084c0.201,0.056,0.38,0.142,0.539,0.259
				c0.159,0.117,0.287,0.266,0.385,0.448c0.098,0.182,0.147,0.394,0.147,0.637c0,0.336-0.093,0.672-0.28,1.008
				c-0.187,0.336-0.481,0.709-0.882,1.12c-0.401,0.411-0.922,0.873-1.561,1.386c-0.639,0.513-1.412,1.111-2.317,1.792v1.288h6.776
				V7.073h-4.158C438.775,6.597,439.34,6.143,439.844,5.708z M450.406,0.563c-0.304-0.457-0.692-0.826-1.164-1.106
				c-0.472-0.28-1.036-0.42-1.69-0.42s-1.218,0.14-1.69,0.42c-0.472,0.28-0.86,0.649-1.164,1.106
				c-0.304,0.457-0.529,0.973-0.673,1.547c-0.145,0.574-0.217,1.155-0.217,1.743s0.072,1.171,0.217,1.75
				c0.145,0.579,0.369,1.094,0.673,1.547c0.304,0.453,0.692,0.821,1.164,1.106c0.472,0.285,1.036,0.427,1.69,0.427
				s1.218-0.142,1.69-0.427c0.472-0.285,0.86-0.653,1.164-1.106c0.304-0.453,0.528-0.968,0.673-1.547
				c0.145-0.579,0.217-1.162,0.217-1.75s-0.073-1.169-0.217-1.743C450.934,1.536,450.709,1.021,450.406,0.563z M449.504,5.135
				c-0.074,0.406-0.193,0.763-0.356,1.071c-0.163,0.308-0.375,0.555-0.635,0.742c-0.26,0.187-0.581,0.28-0.963,0.28
				c-0.382,0-0.702-0.093-0.963-0.28c-0.261-0.187-0.472-0.434-0.635-0.742c-0.163-0.308-0.282-0.665-0.356-1.071
				c-0.074-0.406-0.112-0.833-0.112-1.281s0.037-0.875,0.112-1.281c0.074-0.406,0.193-0.763,0.356-1.071
				c0.163-0.308,0.374-0.553,0.635-0.735c0.26-0.182,0.581-0.273,0.963-0.273c0.381,0,0.702,0.091,0.963,0.273
				c0.26,0.182,0.472,0.427,0.635,0.735c0.163,0.308,0.281,0.665,0.356,1.071c0.074,0.406,0.112,0.833,0.112,1.281
				S449.579,4.729,449.504,5.135z M452.136,1.893l0.952,0.994l1.526-1.582v7.21h1.638v-9.338h-1.428L452.136,1.893z M463.799,4.959
				v-5.782h-2.254l-3.836,5.908v1.316h4.452v2.114h1.638V6.401h1.246V4.959H463.799z M462.16,4.959h-2.842l2.842-4.312V4.959z"/>
		</g>
	</g>
	<g id="PIN_2_copie_5">
		<g>
			<path fill-rule="evenodd" clip-rule="evenodd" fill="#B8C4C7" d="M403.477,54.492c-0.899,0-1.627,0.692-1.627,1.547
				c0,0.854,0.728,1.546,1.627,1.546c0.898,0,1.627-0.692,1.627-1.546C405.104,55.185,404.376,54.492,403.477,54.492z M403.477,51.4
				c-2.695,0-4.881,2.077-4.881,4.639c0,2.562,4.881,7.732,4.881,7.732s4.881-5.17,4.881-7.732
				C408.358,53.477,406.173,51.4,403.477,51.4z M403.477,59.132c-1.797,0-3.254-1.385-3.254-3.093c0-1.708,1.457-3.093,3.254-3.093
				s3.254,1.385,3.254,3.093C406.731,57.747,405.274,59.132,403.477,59.132z"/>
		</g>
	</g>
	<g id="San_Francisco">
		<g>
			<path fill-rule="evenodd" clip-rule="evenodd" fill="#A3AEB0" d="M418.609,53.284c0.441-0.29,0.965-0.435,1.571-0.435
				c0.556,0,1.07,0.095,1.541,0.285c0.471,0.19,0.862,0.495,1.171,0.915l0.921-0.915c-0.344-0.45-0.794-0.795-1.347-1.035
				c-0.554-0.24-1.22-0.36-1.998-0.36c-0.495,0-0.967,0.068-1.416,0.203s-0.849,0.325-1.201,0.57
				c-0.352,0.245-0.647,0.538-0.884,0.878c-0.237,0.34-0.393,0.715-0.466,1.125c-0.08,0.45-0.061,0.825,0.057,1.125
				c0.118,0.3,0.298,0.553,0.54,0.758c0.241,0.205,0.53,0.373,0.866,0.503c0.335,0.13,0.683,0.247,1.044,0.352
				c0.36,0.105,0.711,0.205,1.053,0.3c0.342,0.095,0.639,0.215,0.891,0.36c0.252,0.145,0.445,0.322,0.58,0.532
				c0.134,0.21,0.173,0.475,0.116,0.795c-0.034,0.19-0.109,0.388-0.227,0.593c-0.117,0.205-0.282,0.39-0.493,0.555
				s-0.479,0.303-0.801,0.412c-0.323,0.11-0.712,0.165-1.166,0.165c-0.354,0-0.68-0.04-0.979-0.12
				c-0.299-0.08-0.571-0.185-0.816-0.315c-0.245-0.13-0.463-0.282-0.654-0.458c-0.191-0.175-0.352-0.352-0.481-0.532l-0.911,0.945
				c0.341,0.47,0.803,0.853,1.387,1.148s1.321,0.443,2.211,0.443c0.677,0,1.268-0.085,1.774-0.255
				c0.505-0.17,0.931-0.392,1.279-0.667c0.347-0.275,0.618-0.59,0.813-0.945c0.195-0.355,0.324-0.713,0.388-1.073
				c0.084-0.47,0.068-0.865-0.046-1.185c-0.115-0.32-0.292-0.59-0.53-0.81c-0.239-0.22-0.525-0.4-0.859-0.54
				c-0.334-0.14-0.681-0.263-1.041-0.368c-0.36-0.105-0.711-0.205-1.053-0.3c-0.342-0.095-0.64-0.207-0.895-0.337
				c-0.255-0.13-0.452-0.285-0.592-0.465c-0.14-0.18-0.185-0.41-0.135-0.69C417.905,53.959,418.168,53.574,418.609,53.284z
				 M430.411,55.032c-0.223-0.195-0.498-0.338-0.826-0.428c-0.328-0.09-0.683-0.135-1.067-0.135c-1.173,0-2.219,0.4-3.14,1.2
				l0.392,0.78c0.756-0.67,1.564-1.005,2.423-1.005c0.536,0,0.954,0.133,1.256,0.398c0.301,0.265,0.408,0.643,0.321,1.133
				l-0.233,1.305c-0.233-0.34-0.539-0.59-0.92-0.75c-0.381-0.16-0.824-0.24-1.329-0.24c-0.313,0-0.63,0.048-0.95,0.143
				c-0.32,0.095-0.619,0.243-0.898,0.443c-0.278,0.2-0.52,0.45-0.725,0.75c-0.205,0.3-0.343,0.65-0.414,1.05
				c-0.07,0.39-0.055,0.735,0.043,1.035s0.25,0.553,0.456,0.758c0.206,0.205,0.452,0.358,0.737,0.457s0.585,0.15,0.898,0.15
				c1.001,0,1.869-0.335,2.605-1.005l-0.147,0.825h1.137l0.888-4.98c0.078-0.44,0.069-0.815-0.027-1.125
				C430.794,55.479,430.634,55.227,430.411,55.032z M429.165,60.364c-0.276,0.3-0.606,0.525-0.992,0.675
				c-0.386,0.15-0.781,0.225-1.185,0.225c-0.536,0-0.944-0.147-1.225-0.443c-0.281-0.295-0.38-0.672-0.298-1.133
				c0.084-0.47,0.319-0.852,0.705-1.148c0.386-0.295,0.847-0.442,1.383-0.442c0.404,0,0.772,0.075,1.105,0.225
				c0.332,0.15,0.582,0.375,0.751,0.675L429.165,60.364z M437.371,54.469c-0.273,0-0.545,0.035-0.815,0.105
				c-0.27,0.07-0.53,0.165-0.779,0.285c-0.249,0.12-0.477,0.253-0.685,0.398c-0.208,0.145-0.391,0.292-0.549,0.443l0.187-1.05
				h-1.137l-1.291,7.245h1.137l0.944-5.295c0.128-0.15,0.282-0.293,0.463-0.428c0.181-0.135,0.376-0.255,0.587-0.36
				c0.211-0.105,0.428-0.188,0.65-0.247c0.223-0.06,0.446-0.09,0.668-0.09c0.495,0,0.871,0.12,1.126,0.36s0.326,0.68,0.212,1.32
				l-0.845,4.74h1.137l0.906-5.085C439.567,55.249,438.928,54.469,437.371,54.469z M452.824,52.999l0.198-1.11h-6.625l-1.783,10.005
				h1.258l0.813-4.56h5.261l0.198-1.11h-5.261l0.575-3.225H452.824z M455.126,55.819l0.209-1.17h-1.137l-1.291,7.245h1.137
				l0.914-5.13c0.108-0.15,0.249-0.292,0.425-0.427s0.367-0.257,0.574-0.367c0.207-0.11,0.414-0.197,0.623-0.263
				c0.208-0.065,0.399-0.098,0.571-0.098c0.162,0,0.311,0.015,0.447,0.045l0.206-1.155c-0.505,0-0.988,0.125-1.447,0.375
				C455.897,55.124,455.487,55.439,455.126,55.819z M464.007,55.032c-0.223-0.195-0.498-0.338-0.826-0.428
				c-0.328-0.09-0.683-0.135-1.067-0.135c-1.173,0-2.219,0.4-3.14,1.2l0.392,0.78c0.756-0.67,1.564-1.005,2.423-1.005
				c0.536,0,0.954,0.133,1.256,0.398c0.301,0.265,0.408,0.643,0.321,1.133l-0.233,1.305c-0.233-0.34-0.539-0.59-0.92-0.75
				c-0.381-0.16-0.824-0.24-1.329-0.24c-0.313,0-0.63,0.048-0.95,0.143c-0.32,0.095-0.619,0.243-0.898,0.443
				c-0.278,0.2-0.52,0.45-0.725,0.75s-0.343,0.65-0.415,1.05c-0.07,0.39-0.055,0.735,0.043,1.035c0.098,0.3,0.25,0.553,0.456,0.758
				c0.206,0.205,0.452,0.358,0.737,0.457c0.285,0.1,0.585,0.15,0.898,0.15c1.001,0,1.869-0.335,2.605-1.005l-0.147,0.825h1.137
				l0.888-4.98c0.078-0.44,0.069-0.815-0.027-1.125C464.39,55.479,464.23,55.227,464.007,55.032z M462.761,60.364
				c-0.276,0.3-0.606,0.525-0.992,0.675c-0.386,0.15-0.781,0.225-1.185,0.225c-0.536,0-0.944-0.147-1.225-0.443
				c-0.281-0.295-0.38-0.672-0.298-1.133c0.084-0.47,0.319-0.852,0.705-1.148c0.386-0.295,0.847-0.442,1.383-0.442
				c0.404,0,0.773,0.075,1.105,0.225c0.332,0.15,0.583,0.375,0.751,0.675L462.761,60.364z M470.967,54.469
				c-0.273,0-0.545,0.035-0.815,0.105c-0.27,0.07-0.53,0.165-0.779,0.285c-0.249,0.12-0.477,0.253-0.685,0.398
				c-0.208,0.145-0.391,0.292-0.549,0.443l0.187-1.05h-1.137l-1.291,7.245h1.137l0.944-5.295c0.128-0.15,0.282-0.293,0.463-0.428
				c0.181-0.135,0.376-0.255,0.587-0.36c0.211-0.105,0.428-0.188,0.651-0.247s0.446-0.09,0.668-0.09c0.495,0,0.871,0.12,1.126,0.36
				s0.326,0.68,0.212,1.32l-0.845,4.74h1.137l0.906-5.085C473.163,55.249,472.524,54.469,470.967,54.469z M480.371,54.829
				c-0.377-0.24-0.899-0.36-1.566-0.36c-0.546,0-1.061,0.097-1.545,0.292c-0.485,0.195-0.916,0.463-1.295,0.802
				c-0.379,0.34-0.698,0.74-0.957,1.2c-0.259,0.46-0.436,0.96-0.533,1.5s-0.097,1.042-0.003,1.508
				c0.094,0.465,0.27,0.868,0.528,1.208c0.258,0.34,0.594,0.607,1.009,0.802c0.415,0.195,0.895,0.292,1.441,0.292
				c0.667,0,1.232-0.12,1.694-0.36s0.867-0.54,1.214-0.9l-0.635-0.69c-0.587,0.63-1.265,0.945-2.033,0.945
				c-0.394,0-0.733-0.07-1.016-0.21c-0.283-0.14-0.514-0.335-0.692-0.585c-0.178-0.25-0.294-0.547-0.349-0.893
				c-0.055-0.345-0.046-0.717,0.025-1.117c0.071-0.4,0.195-0.77,0.372-1.11c0.177-0.34,0.399-0.635,0.666-0.885
				c0.267-0.25,0.567-0.445,0.9-0.585c0.333-0.14,0.697-0.21,1.091-0.21c0.384,0,0.717,0.075,0.998,0.225s0.514,0.39,0.698,0.72
				l0.881-0.69C481.045,55.369,480.748,55.069,480.371,54.829z M481.757,61.894h1.137l1.291-7.245h-1.137L481.757,61.894z
				 M484.064,52.099c-0.202,0-0.393,0.075-0.571,0.225c-0.178,0.15-0.286,0.33-0.324,0.54c-0.037,0.21,0.007,0.388,0.132,0.533
				c0.126,0.145,0.289,0.217,0.492,0.217c0.212,0,0.407-0.072,0.585-0.217c0.177-0.145,0.285-0.323,0.322-0.533
				c0.037-0.21-0.006-0.39-0.131-0.54C484.445,52.174,484.276,52.099,484.064,52.099z M487.369,55.714
				c0.327-0.22,0.744-0.33,1.249-0.33c0.475,0,0.886,0.088,1.234,0.263c0.348,0.175,0.61,0.393,0.786,0.652l0.67-0.78
				c-0.242-0.29-0.566-0.537-0.975-0.742c-0.408-0.205-0.926-0.307-1.552-0.307c-0.435,0-0.831,0.055-1.189,0.165
				c-0.358,0.11-0.671,0.26-0.937,0.45c-0.266,0.19-0.483,0.412-0.65,0.667c-0.167,0.255-0.275,0.523-0.325,0.802
				c-0.08,0.45-0.032,0.802,0.145,1.057c0.177,0.255,0.421,0.46,0.732,0.615c0.311,0.155,0.653,0.275,1.027,0.36
				c0.374,0.085,0.721,0.178,1.042,0.277c0.321,0.1,0.579,0.228,0.773,0.383c0.195,0.155,0.266,0.378,0.215,0.667
				c-0.064,0.36-0.264,0.658-0.599,0.893c-0.335,0.235-0.786,0.353-1.351,0.353c-0.506,0-0.955-0.102-1.348-0.307
				c-0.393-0.205-0.686-0.447-0.878-0.728l-0.736,0.81c0.304,0.39,0.688,0.678,1.15,0.862c0.462,0.185,0.997,0.278,1.603,0.278
				c0.475,0,0.902-0.058,1.281-0.172c0.379-0.115,0.708-0.27,0.985-0.465c0.277-0.195,0.501-0.427,0.67-0.698
				c0.169-0.27,0.281-0.555,0.334-0.855c0.084-0.47,0.039-0.842-0.134-1.117c-0.173-0.275-0.415-0.492-0.725-0.653
				c-0.31-0.16-0.652-0.282-1.026-0.367c-0.374-0.085-0.722-0.175-1.043-0.27c-0.322-0.095-0.581-0.212-0.778-0.353
				c-0.198-0.14-0.273-0.34-0.227-0.6C486.85,56.204,487.042,55.934,487.369,55.714z M498.336,54.829
				c-0.377-0.24-0.898-0.36-1.566-0.36c-0.546,0-1.061,0.097-1.545,0.292c-0.485,0.195-0.916,0.463-1.295,0.802
				c-0.379,0.34-0.698,0.74-0.957,1.2c-0.259,0.46-0.436,0.96-0.532,1.5c-0.096,0.54-0.097,1.042-0.003,1.508
				c0.094,0.465,0.27,0.868,0.528,1.208c0.258,0.34,0.594,0.607,1.009,0.802c0.415,0.195,0.895,0.292,1.441,0.292
				c0.667,0,1.232-0.12,1.694-0.36c0.462-0.24,0.867-0.54,1.214-0.9l-0.635-0.69c-0.587,0.63-1.265,0.945-2.033,0.945
				c-0.394,0-0.733-0.07-1.016-0.21c-0.283-0.14-0.514-0.335-0.692-0.585c-0.178-0.25-0.294-0.547-0.349-0.893
				c-0.055-0.345-0.046-0.717,0.025-1.117c0.071-0.4,0.195-0.77,0.372-1.11c0.177-0.34,0.399-0.635,0.666-0.885
				c0.267-0.25,0.567-0.445,0.9-0.585c0.333-0.14,0.697-0.21,1.091-0.21c0.384,0,0.717,0.075,0.998,0.225s0.514,0.39,0.698,0.72
				l0.881-0.69C499.011,55.369,498.713,55.069,498.336,54.829z M507.205,56.787c-0.084-0.465-0.252-0.867-0.505-1.208
				c-0.253-0.34-0.586-0.61-1-0.81c-0.414-0.2-0.899-0.3-1.455-0.3c-0.556,0-1.077,0.1-1.562,0.3c-0.485,0.2-0.915,0.47-1.289,0.81
				c-0.374,0.34-0.686,0.742-0.935,1.208c-0.25,0.465-0.421,0.958-0.513,1.477c-0.095,0.53-0.099,1.025-0.014,1.485
				c0.085,0.46,0.253,0.862,0.505,1.208c0.252,0.345,0.585,0.618,0.999,0.818c0.414,0.2,0.899,0.3,1.455,0.3
				c0.556,0,1.076-0.1,1.562-0.3c0.485-0.2,0.916-0.473,1.29-0.818c0.375-0.345,0.687-0.747,0.935-1.208
				c0.249-0.46,0.42-0.955,0.515-1.485C507.285,57.744,507.289,57.252,507.205,56.787z M505.995,58.264
				c-0.066,0.37-0.182,0.725-0.349,1.065c-0.167,0.34-0.376,0.638-0.629,0.893s-0.542,0.46-0.867,0.615
				c-0.326,0.155-0.686,0.232-1.08,0.232s-0.729-0.077-1.005-0.232c-0.276-0.155-0.494-0.36-0.656-0.615s-0.266-0.552-0.311-0.893
				c-0.045-0.34-0.035-0.695,0.031-1.065c0.066-0.37,0.182-0.722,0.348-1.057c0.166-0.335,0.375-0.63,0.628-0.885
				c0.253-0.255,0.544-0.46,0.875-0.615c0.331-0.155,0.693-0.232,1.088-0.232s0.727,0.078,0.997,0.232
				c0.271,0.155,0.487,0.36,0.648,0.615c0.162,0.255,0.266,0.55,0.312,0.885C506.07,57.542,506.06,57.894,505.995,58.264z"/>
		</g>
	</g>
</g>
</svg>
