<?xml version="1.0" encoding="utf-8"?>
<!-- Generator: Adobe Illustrator 16.0.4, SVG Export Plug-In . SVG Version: 6.00 Build 0)  -->
<!DOCTYPE svg PUBLIC "-//W3C//DTD SVG 1.1//EN" "http://www.w3.org/Graphics/SVG/1.1/DTD/svg11.dtd">
<svg version="1.1" id="Ebene_1" xmlns="http://www.w3.org/2000/svg" xmlns:xlink="http://www.w3.org/1999/xlink" x="0px" y="0px"
	 width="600px" height="322px" viewBox="-224.999 -86.003 600 322" enable-background="new -224.999 -86.003 600 322"
	 xml:space="preserve">
<path fill="#333333" d="M79.076,70.888h-3.609v0.104h-3.585c0,0-14.349,32.627,3.585,32.627v-0.087
	C93.509,103.532,79.076,70.888,79.076,70.888z M122.513,90.603c-3.302,2.637-6.623,5.782-11.237,7.05
	c-6.873,1.879-7.475-5.146-13.388-2.624c-6.536,2.792-14.45,11.701-24.786,9.831c-6.28-1.136-11.053-4.173-15.7-7.045
	c-2.098-1.299-4.373-3.186-7.273-3.604c-2.808-0.407-4.09,3.053-6.611,3.604c-8.72,1.902-15.944-9.121-20.327-12.453
	c0.601,5.924,3.42,11.324,5.95,15.562c10.13,16.988,34.373,33.611,62.633,23.761c18.537-6.464,28.538-19.113,34.705-38.017
	L122.513,90.603L122.513,90.603z M81.199,53.718c0,0,5.53-21.588-6.113-30.027v-0.035l-0.023,0.018
	c-0.007-0.004-0.014-0.011-0.021-0.018v0.035c-11.642,8.393-6.12,30.002-6.12,30.002c-12.192,7.333-5.974,16.176-5.974,16.176
	c1.399-6.301,7.815-6.545,7.815-6.545l0.656,5.521l3.452,0.104v0.013l0.181-0.007l0.188,0.005v-0.013l3.453-0.092l0.658-5.521
	c0,0,6.415,0.273,7.811,6.575c0.005,0,6.226-8.816-5.967-16.197L81.199,53.718z M136.782,81.194
	c1.349-2.646,9.587-3.647,13.055-3.964c0.053-1.431,0.105-2.863,0.164-4.296c-3.405-0.722-11.431-1.146-13.052-3.8l-0.829-4.625
	c-0.26-1.271-0.57-3.186,0.17-4.295c1.273-1.92,8.268-4.944,10.571-6.277c-0.383-1.323-0.77-2.646-1.156-3.965
	c-3.335,0.087-10.526,2.01-12.884,0.827c-1.317-0.662-1.634-2.141-2.316-3.47c-0.655-1.288-2.268-2.72-1.815-4.956
	c0.383-1.871,6.523-8.233,8.095-9.417c-0.714-1.156-1.428-2.315-2.145-3.469c-3.48-0.279-8.266,5.343-12.063,4.625
	c-1.73-0.331-2.59-1.769-3.632-2.808l-2.641-2.646c-1.233-2.689,3.343-10.488,4.46-12.885l-3.473-2.475
	c-2.414,1.845-6.673,7.416-9.418,8.094c-1.952,0.48-3.238-0.787-4.294-1.323c-1.546-0.784-3.521-1.283-4.296-2.808
	c-0.826-1.629,0.4-10.618,0.992-12.72L96.307,3.22l-6.273,10.409c-1.144,0.853-2.977,0.626-4.459,0.327l-3.965-0.496
	c-3.877-1.441-2.784-9.348-4.459-13.051c-0.627-0.596-2.933-0.39-4.125-0.331c-0.94,4.021-1.875,8.042-2.812,12.063
	c-1.041,1.444-2.625,1.229-4.79,1.65c-1.167,0.226-3.041,0.887-4.46,0.331c-1.831-0.722-6.136-8.766-6.936-10.904l-4.131,1.154
	c0.109,3.213,2.113,11.019,0.662,13.215c-0.853,1.289-2.593,1.515-3.968,2.315c-1.288,0.749-3.183,2.188-5.285,1.154l-8.261-7.433
	l-0.662-0.331l-3.138,2.313c0.421,0.313,5.076,10.965,4.79,12.059c-0.442,1.7-1.896,2.556-2.973,3.635
	c-5.466,5.466-9.26-0.104-15.363-1.984l-2.477,3.307l7.928,8.919c0.749,1.92-0.425,3.51-0.992,4.626
	c-3.735,7.374-6.888,4.543-15.692,3.633l-1.323,4.133c2.263,1.105,9.353,4.456,10.575,6.277c0.745,1.114,0.423,3.006,0.166,4.296
	l-0.661,4.294c-1.341,2.646-9.586,3.655-13.05,3.965l-0.17,4.3c3.403,0.722,11.431,1.146,13.049,3.8l0.828,4.625
	c0.26,1.271,0.574,3.186-0.166,4.296c-1.275,1.924-8.268,4.948-10.572,6.277c0.382,1.323,0.771,2.646,1.156,3.965
	c3.335-0.087,10.525-2.011,12.886-0.827c1.314,0.662,1.631,2.139,2.315,3.468c0.656,1.287,2.268,2.72,1.815,4.958
	c-0.379,1.868-6.521,8.232-8.094,9.416l2.146,3.468c3.481,0.277,8.265-5.345,12.06-4.624c1.733,0.325,2.593,1.765,3.634,2.806
	l2.646,2.646c1.23,2.689-3.342,10.486-4.461,12.882l3.137,2.479h0.331c2.413-1.848,6.672-7.418,9.417-8.093
	c1.955-0.483,3.238,0.782,4.293,1.321c1.545,0.783,3.517,1.281,4.293,2.807c0.827,1.629-0.4,10.622-0.993,12.721l3.969,1.323
	l6.275-10.409c1.146-0.853,2.977-0.627,4.461-0.328l3.965,0.495c3.871,1.438,2.785,9.351,4.461,13.051
	c0.629,0.594,2.936,0.389,4.13,0.328l2.808-12.061c1.039-1.446,2.624-1.229,4.791-1.651c1.165-0.23,3.041-0.891,4.459-0.33
	c1.835,0.721,6.137,8.766,6.938,10.902l4.132-1.156c-0.109-3.216-2.115-11.022-0.661-13.218c0.853-1.288,2.594-1.514,3.962-2.314
	c1.289-0.748,3.186-2.188,5.287-1.155l8.26,7.434c0.221,0.111,0.439,0.224,0.662,0.33l3.14-2.31
	c-1.02-2.385-5.628-10.02-4.628-12.723l3.143-3.298c0.958-0.957,2.036-2.751,4.129-2.478l10.904,4.79l2.479-3.306
	c-2.646-2.972-5.287-5.947-7.932-8.92c-0.748-1.92,0.427-3.509,0.992-4.625c3.736-7.375,6.889-4.543,15.694-3.638l1.323-3.962
	c-2.702-2.641-8.472-3.307-10.573-6.441c-0.748-1.114-0.423-3.008-0.167-4.3l0.662-4.298L136.782,81.194z M127.533,96.391
	c-6.604,15.589-18.812,27.423-35.684,32.71c-4.353,1.364-8.965,1.643-14.041,2.479c-8.721,1.436-19.042-2.146-24.613-4.456
	C31.06,117.938,8.891,88.449,21.641,55.756c6.27-16.071,17.506-27.565,33.536-33.866l10.74-2.808
	c2.089-0.217,4.183-0.439,6.275-0.662c28.923-0.086,46.127,14.378,54.846,34.528c5.442,12.58,6.048,30.346,0.497,43.447
	L127.533,96.391z"/>
</svg>
