<?xml version="1.0" encoding="utf-8"?>
<!-- Generator: Adobe Illustrator 16.0.4, SVG Export Plug-In . SVG Version: 6.00 Build 0)  -->
<!DOCTYPE svg PUBLIC "-//W3C//DTD SVG 1.1//EN" "http://www.w3.org/Graphics/SVG/1.1/DTD/svg11.dtd">
<svg version="1.1" id="Ebene_1" xmlns="http://www.w3.org/2000/svg" xmlns:xlink="http://www.w3.org/1999/xlink" x="0px" y="0px"
	 width="600px" height="267.665px" viewBox="139.047 65.499 600 267.665" enable-background="new 139.047 65.499 600 267.665"
	 xml:space="preserve">
<g>
	<path d="M261.802,178.672c-6.587,0-10.18,1.796-10.18,6.586c0,1.797,1.198,3.593,2.995,4.791c1.198,0.6,5.389,2.395,11.377,4.192
		c6.586,2.395,10.778,4.19,13.174,7.186c2.395,2.395,4.192,5.987,4.192,11.376c0,6.587-2.396,11.977-6.587,15.569
		c-3.593,2.994-8.982,4.791-15.569,4.791c-4.79,0-10.778-0.6-17.964-1.797l-3.593-1.198l1.198-9.581
		c8.383,1.198,14.971,1.198,19.162,1.198c7.185,0,10.179-2.396,10.179-7.784c0-2.396-0.599-3.593-2.395-4.79
		c-1.198-1.198-4.192-2.396-8.982-3.593c-7.186-2.396-12.575-4.792-15.569-7.784c-2.994-2.396-4.191-6.588-4.191-11.378
		c0-6.587,1.796-11.377,5.988-14.372c3.593-3.593,8.983-4.79,15.569-4.79c4.791,0,10.778,0.599,17.964,1.796l2.994,0.599
		l-0.599,10.18C271.981,179.271,265.395,178.672,261.802,178.672z M304.916,231.966H292.34v-65.27h12.575v37.126l4.79-0.599
		l9.581-17.965h13.772l-11.976,22.156l12.575,24.551h-13.772l-9.581-17.964l-5.389,0.599V231.966z M366.592,204.421
		c0-3.594-0.599-6.586-1.796-7.784c-1.198-1.197-3.593-2.395-6.587-2.395s-4.791,1.197-5.988,2.395
		c-1.198,1.796-1.796,4.19-1.796,7.784H366.592z M352.819,220.588c1.198,1.198,3.593,1.798,5.988,1.798
		c5.988,0,11.378-0.6,15.569-0.6l2.994-0.598v9.58c-7.186,1.796-13.773,2.396-19.761,2.396c-7.185,0-11.976-1.797-14.969-5.391
		c-3.593-3.593-4.791-10.179-4.791-18.562c0-16.768,6.587-25.15,20.359-25.15c13.773,0,20.359,7.186,20.359,21.558l-0.599,8.383
		h-27.545C350.424,216.996,351.023,218.793,352.819,220.588z M413.897,196.037H402.52v23.354c0,0.6,0.599,1.197,1.198,1.798
		c0.599,0.598,1.198,0.598,2.395,0.598h7.186l0.599,10.18c-4.191,1.198-7.185,1.198-9.581,1.198c-5.389,0-9.581-1.198-11.377-3.593
		c-2.396-2.396-2.994-7.186-2.994-14.372v-19.162h-5.988v-10.778h5.988v-13.173h12.575v13.173h11.377V196.037z M439.646,184.062
		c2.994,0,7.186,0.599,12.576,1.797l2.395,0.599l-0.599,9.58c-4.792-0.598-8.384-0.598-10.779-0.598
		c-4.191,0-7.186,0.598-8.383,2.993c-1.796,1.797-2.395,4.791-2.395,10.18c0,5.39,0.599,8.384,2.395,10.778
		c1.197,1.798,4.191,2.396,8.383,2.396l10.779-0.598l0.599,10.179c-6.587,1.197-11.977,1.797-15.569,1.797
		c-6.586,0-11.976-1.797-14.97-5.988c-2.995-3.593-4.192-10.18-4.192-18.563c0-8.383,1.198-14.97,4.792-18.562
		C427.67,185.858,432.46,184.062,439.646,184.062z M476.772,231.966h-12.575v-65.27h12.575v20.958
		c4.191-2.396,7.784-3.593,11.377-3.593c5.988,0,10.778,1.797,13.174,5.39c2.395,4.191,3.593,9.581,3.593,17.365v25.149H492.34
		v-25.149c0-3.593-0.599-6.587-1.796-8.384c-0.599-1.796-2.395-2.993-5.389-2.993c-2.396,0-4.791,0.598-7.186,1.197h-1.198V231.966z
		 M530.665,196.037v35.929h-12.576v-35.929h-4.79v-10.778h4.79v-1.796c0-7.186,1.198-11.976,2.994-14.371
		c1.796-2.396,5.389-3.593,10.779-3.593c2.395,0,5.389,0,8.982,0.599l1.796,0.599v10.18h-7.186c-1.797,0-2.995,0-3.593,1.197
		c-0.6,1.198-1.197,2.994-1.197,5.389v1.796h11.376v10.778H530.665z M564.196,212.205c-3.593,0.599-5.388,2.396-5.388,5.988
		c0,2.995,1.795,4.79,4.79,4.79c2.395,0,4.79,0,7.784-1.197h1.197v-10.18L564.196,212.205z M585.154,199.63v19.761
		c0.6,1.798,0.6,2.396,1.198,2.995c0,0.598,1.197,1.197,2.395,1.197l-0.598,9.581c-2.995,0-5.989,0-7.785-0.6
		c-1.796-0.599-3.593-1.197-5.987-2.396c-4.192,1.797-8.982,2.995-13.773,2.995c-9.581,0-14.371-4.791-14.371-14.971
		c0-5.39,1.197-8.981,4.191-10.778c2.395-2.396,6.586-3.593,12.575-3.593l9.581-1.197v-2.995c0-1.795,0-2.993-1.197-3.593
		c-0.599-0.598-2.396-1.197-4.191-1.197l-17.366,0.6l-0.599-8.384c6.587-1.797,13.174-2.994,19.162-2.994s10.18,1.197,13.173,3.593
		C583.957,190.649,585.154,194.242,585.154,199.63z M615.693,221.786c4.192,0,7.187-0.598,8.384-2.993
		c1.797-1.797,2.396-5.39,2.396-10.779c0-8.384-2.994-12.574-7.784-12.574c-2.995,0-5.39,0-7.187,0.598l-1.797,0.6v25.149H615.693
		 M619.886,184.062c6.587,0,11.377,1.797,14.371,5.39c3.593,3.593,4.79,10.179,4.79,19.161c0,9.581-1.797,16.168-5.389,19.161
		c-3.593,3.594-9.581,5.391-17.965,5.391c-2.395,0-7.784,0-14.97-0.6l-3.593-0.599v-65.27h12.574v19.761
		C613.898,184.66,617.49,184.062,619.886,184.062z"/>
</g>
</svg>
