<?xml version="1.0" encoding="utf-8"?>
<!-- Generator: Adobe Illustrator 16.0.4, SVG Export Plug-In . SVG Version: 6.00 Build 0)  -->
<!DOCTYPE svg PUBLIC "-//W3C//DTD SVG 1.1//EN" "http://www.w3.org/Graphics/SVG/1.1/DTD/svg11.dtd">
<svg version="1.1" id="Ebene_2" xmlns="http://www.w3.org/2000/svg" xmlns:xlink="http://www.w3.org/1999/xlink" x="0px" y="0px"
	 width="600px" height="268.672px" viewBox="2008.251 503.458 600 268.672" enable-background="new 2008.251 503.458 600 268.672"
	 xml:space="preserve">
<path d="M2121.308,634.997c0-2.883,2.968-4.409,7.207-4.409c2.628,0,6.104,1.102,6.104,3.391v2.374h10.683v-5.087
	c0-7.884-10.513-10.089-17.041-10.089c-10.089,0.085-18.906,4.578-18.906,14.243c0,15.684,25.604,15.6,25.604,22.467
	c0,3.222-2.883,4.747-6.613,4.747c-8.309,0-14.498-7.121-14.498-7.121l-5.595,7.97c0,0,6.867,8.646,20.178,8.646
	c10.598,0,18.652-5.681,18.652-14.836C2147.082,641.101,2121.308,642.627,2121.308,634.997z M2221.096,658.65V622.11h-12.039v22.382
	c0,8.732-4.833,16.447-13.565,16.447c-5.935,0-7.46-3.984-7.46-10.004v-22.383c0-4.408-1.865-6.443-6.359-6.443h-11.53v10.343h3.815
	c1.356,0,2.12,0.678,2.12,2.119v18.991c0,13.31,6.359,18.566,16.702,18.566c8.309,0,14.413-5.087,16.702-10.173h0.17
	c0,0-0.085,1.018-0.085,2.204v1.356c0,3.476,2.204,5.426,6.358,5.426h11.022V660.77h-3.815
	C2221.859,660.77,2221.096,659.922,2221.096,658.65z M2262.894,634.997c0-2.883,2.967-4.409,7.292-4.409
	c2.713,0,6.104,1.102,6.104,3.391v2.374h10.682v-5.087c0-7.884-10.513-10.089-17.126-10.089c-10.173,0-18.906,4.493-18.906,14.158
	c0,15.685,25.689,15.6,25.689,22.467c0,3.222-2.883,4.748-6.613,4.748c-8.309,0-14.498-7.122-14.498-7.122l-5.765,7.885
	c0,0,6.867,8.646,20.263,8.646c10.598,0,18.737-5.681,18.737-14.836C2288.837,641.101,2262.894,642.627,2262.894,634.997z
	 M2363.444,658.989v-19.075c0-12.887-6.104-18.567-16.957-18.567c-8.392,0-14.412,5.001-16.701,9.665h-0.17
	c0,0,0.17-1.696,0.17-4.069v-17.125c0-4.409-2.035-6.359-6.528-6.359h-11.53v10.343h3.815c1.357,0,2.12,0.678,2.12,2.12v55.361
	h12.124V648.9c0-2.289,0.169-4.408,0.763-6.273c1.78-5.935,6.783-10.089,13.141-10.089c6.104,0,7.715,3.985,7.715,9.919v22.383
	c0,4.577,1.951,6.527,6.359,6.527h11.615v-10.343h-3.816C2364.208,661.024,2363.444,660.262,2363.444,658.989z M2386.335,672.13
	h10.174v-11.021h-10.174V672.13z M2432.542,661.024c-1.357,0-2.119-0.763-2.119-2.119v-29.844c0-4.493-1.865-6.528-6.359-6.528
	h-11.445v10.343h3.814c1.357,0,2.119,0.678,2.119,2.12v29.843c0,4.577,1.865,6.527,6.359,6.527h11.445v-10.343H2432.542z
	 M2429.489,603.458h-10.428v11.191h10.428V603.458z M2507.403,637.201l-1.271-0.424c0.086-0.085,0.17-0.169,0.34-0.254
	l-41.289-12.802c0,0,0.084,0.254,0.17,0.594l-0.51-0.17c-5.596,4.833-8.986,11.954-8.986,20.093
	c0,15.176,11.275,27.045,26.197,27.045s26.197-11.869,26.197-27.045C2508.251,641.779,2507.997,639.405,2507.403,637.201z
	 M2482.054,662.381c-9.156,0-16.531-7.885-16.531-18.144c0-3.984,1.186-7.63,3.307-10.513c4.322,8.139,13.055,17.041,29.588,8.139
	c0.084,0.764,0.17,1.611,0.17,2.374C2498.587,654.581,2491.21,662.381,2482.054,662.381L2482.054,662.381z"/>
</svg>
